PathFileType	4	(x/y/z)	S10_M20_T60
DataRate	CameraRate	NumFrames	NumMarkers	Units	OrigDataRate	OrigDataStartFrame	OrigNumFrames
240	240	7	51	mm	240	388	517
Frame#	Time	Sternum			R.Acromium			L.Acromium			Top.Head			R.ASIS			L.ASIS			R.PSIS			L.PSIS			R.Great.Tro			L.Great.Tro			R.Iliac.Crest			L.Iliac.Crest			V.Sacral			R.Thigh.Upper.Post			R.Thigh.Lower.Ant			R.Thigh.Lower.Post			R.Thigh.Upper.Ant			R.Knee.Lat			R.Knee.Med			R.Shank.Upper.Post			R.Shank.Lower.Ant			R.Shank.Lower.Post			R.Shank.Upper.Ant			R.Ankle.Lat			R.Ankle.Med			R.Heel.Upper			R.Heel.Med			R.Heel.Lat			R.Toe.Lat			R.Toe.Med			R.Toe.Tip			L.Thigh.Upper.Post			L.Thigh.Lower.Ant			L.Thigh.Lower.Post			L.Thigh.Upper.Ant			L.Knee.Lat			L.Knee.Med			L.Shank.Upper.Post			L.Shank.Lower.Ant			L.Shank.Lower.Post			L.Shank.Upper.Ant			L.Ankle.Lat			L.Ankle.Med			L.Heel.Upper			L.Heel.Med			L.Heel.Lat			L.Toe.Lat			L.Toe.Med			L.Toe.Tip			Cervical.Spine			Back			
		X1	Y1	Z1	X2	Y2	Z2	X3	Y3	Z3	X4	Y4	Z4	X5	Y5	Z5	X6	Y6	Z6	X7	Y7	Z7	X8	Y8	Z8	X9	Y9	Z9	X10	Y10	Z10	X11	Y11	Z11	X12	Y12	Z12	X13	Y13	Z13	X14	Y14	Z14	X15	Y15	Z15	X16	Y16	Z16	X17	Y17	Z17	X18	Y18	Z18	X19	Y19	Z19	X20	Y20	Z20	X21	Y21	Z21	X22	Y22	Z22	X23	Y23	Z23	X24	Y24	Z24	X25	Y25	Z25	X26	Y26	Z26	X27	Y27	Z27	X28	Y28	Z28	X29	Y29	Z29	X30	Y30	Z30	X31	Y31	Z31	X32	Y32	Z32	X33	Y33	Z33	X34	Y34	Z34	X35	Y35	Z35	X36	Y36	Z36	X37	Y37	Z37	X38	Y38	Z38	X39	Y39	Z39	X40	Y40	Z40	X41	Y41	Z41	X42	Y42	Z42	X43	Y43	Z43	X44	Y44	Z44	X45	Y45	Z45	X46	Y46	Z46	X47	Y47	Z47	X48	Y48	Z48	X49	Y49	Z49	X50	Y50	Z50	X51	Y51	Z51	

388	1.6125	1378.9	1262.2	298.78	1267.3	1422.9	445.96	1240.3	1427.3	138.02	1199	1730.1	304.41	1318.7	979.46	413.98	1335.8	1020.1	186.44	1126.4	1009.3	308.4	1138	1025.4	228.94	1233.7	892.85	465.73	1287.4	966.36	118.74	1222.4	1058.3	453.37	1270.1	1095.1	157.69	1109.6	982.75	265.3	1261.2	688.8	477.05	1326.6	612.48	457.74	1260.8	598.74	471.56	1329.9	704.57	459.32	1261.4	475.59	446.73	1282.1	465.14	316.44	1055.7	396.23	439.83	1039.1	306.05	435.59	994.48	353.84	435.2	1106	344.2	441.32	916.69	277.18	421.29	935.94	267.7	339.56	871.07	311.38	363.47	846.84	297.3	335.45	843.5	306.85	397.5	859.41	139.39	453.09	882.12	107.54	351.99	908.85	58.611	397.7	1313.9	678.6	127.4	1395.9	617.84	170.63	1330.9	588.34	155.84	1386.7	704.39	143.83	1379.3	513.6	181.65	1365.4	518.41	309.25	1310.2	301.05	172.48	1371.2	211.6	197.42	1309.9	223.87	182.5	1372	288.15	187.27	1328.3	106.52	195.82	1335.2	116.08	285.4	1257.1	77.253	239.65	1265.9	44.883	271.76	1262.3	47.622	205.45	1440.5	42.501	176.47	1465	45.804	284.64	1521.5	58.803	239.42	1173.5	1480.7	308.8	1092.7	1270.3	306.05
389	1.6167	1383.7	1263.5	299.28	1271.3	1424.1	445.98	1246.1	1428.7	137.85	1204.4	1731.4	304.2	1323.6	980.98	413.71	1340.6	1021	186.08	1131.2	1010.5	308.1	1142.7	1026.6	228.55	1238.9	894.42	465.61	1291.8	966.97	118.44	1227.1	1059.8	453.01	1275	1096.1	157.41	1114.3	984.02	264.99	1269	690.39	477.23	1335.3	614.89	457.84	1269.7	600.33	471.86	1337.4	707.01	459.32	1272	477.23	446.97	1292.8	466.92	316.51	1066.8	397.07	439.5	1050.6	306.8	435.48	1005.8	354.38	434.85	1117.4	345.26	441.22	928.24	277.27	420.9	947.64	267.56	339.57	881.63	310.56	362.9	857.68	295.9	334.99	854.24	305.68	397	873.51	138.98	453.49	896.74	107.12	352.49	924.38	58.939	398.42	1316.5	679.05	127.16	1397.7	617.56	170.23	1332.7	588.64	155.51	1389.4	704.29	143.46	1380.7	513.51	181.21	1367	518.36	308.77	1310.7	301.14	172.38	1371.4	211.51	197.16	1310.1	223.99	182.45	1372.5	288.04	186.95	1328.3	106.51	195.76	1335.3	116.21	285.41	1257.1	77.278	239.64	1265.9	44.926	271.75	1262.3	47.652	205.44	1440.5	42.48	176.45	1465	45.799	284.63	1521.5	58.777	239.41	1178.3	1481.8	308.21	1097.5	1271.5	304.83
390	1.6208	1388.5	1264.8	299.77	1275.2	1425.2	446	1252	1430.1	137.69	1209.7	1732.8	304.01	1328.4	982.53	413.38	1345.4	1021.9	185.67	1136	1011.8	307.87	1147.4	1027.7	228.21	1244.1	896.02	465.54	1296.2	967.56	118.14	1231.9	1061.3	452.66	1279.9	1097.1	157.11	1118.9	985.27	264.75	1276.8	692.04	477.43	1344	617.36	457.91	1278.6	601.98	472.18	1344.9	709.5	459.29	1282.5	478.94	447.22	1303.4	468.76	316.62	1077.9	397.84	439.14	1062.2	307.47	435.37	1017.1	354.79	434.48	1128.7	346.31	441.12	939.86	277.15	420.52	959.42	267.24	339.59	892.23	309.48	362.36	868.59	294.23	334.55	865.03	304.23	396.5	887.82	138.36	453.87	911.63	106.54	352.98	940.19	59.141	399.13	1318.9	679.51	126.93	1399.4	617.27	169.82	1334.5	588.96	155.2	1392.1	704.17	143.07	1382	513.42	180.76	1368.6	518.29	308.29	1311.2	301.24	172.25	1371.7	211.42	196.92	1310.4	224.1	182.36	1373.1	287.94	186.64	1328.3	106.49	195.69	1335.4	116.34	285.41	1257.1	77.304	239.63	1265.9	44.969	271.73	1262.3	47.684	205.43	1440.5	42.458	176.43	1465	45.795	284.62	1521.5	58.751	239.39	1183	1483	307.63	1102.3	1272.7	303.63
391	1.625	1393.3	1266	300.23	1279.2	1426.3	446.02	1257.8	1431.5	137.54	1215.1	1734.1	303.83	1333.3	984.08	413.02	1350.1	1022.9	185.23	1140.8	1013.1	307.69	1152.1	1028.7	227.91	1249.4	897.64	465.52	1300.5	968.13	117.83	1236.7	1062.8	452.31	1284.7	1098.1	156.78	1123.5	986.49	264.58	1284.6	693.72	477.64	1352.7	619.88	457.97	1287.6	603.69	472.52	1352.4	712.02	459.22	1293	480.72	447.46	1314	470.67	316.75	1088.9	398.54	438.77	1073.7	308.05	435.27	1028.4	355.08	434.11	1140	347.33	441.03	951.55	276.84	420.14	971.28	266.76	339.6	902.88	308.15	361.83	879.59	292.28	334.12	875.87	302.49	396.02	902.33	137.54	454.24	926.76	105.79	353.43	956.28	59.224	399.81	1321.4	679.97	126.72	1401.2	616.99	169.41	1336.2	589.28	154.9	1394.7	704.06	142.67	1383.2	513.35	180.3	1370.1	518.22	307.81	1311.7	301.33	172.09	1372	211.33	196.7	1310.7	224.22	182.26	1373.6	287.84	186.34	1328.3	106.47	195.62	1335.4	116.47	285.42	1257.1	77.33	239.62	1265.8	45.013	271.72	1262.3	47.717	205.41	1440.4	42.435	176.4	1465	45.791	284.61	1521.5	58.725	239.38	1187.8	1484.1	307.06	1107.1	1273.8	302.46
392	1.6292	1398.1	1267.3	300.66	1283.2	1427.4	446.04	1263.7	1432.9	137.41	1220.5	1735.4	303.67	1338.2	985.64	412.61	1354.9	1023.8	184.75	1145.6	1014.3	307.57	1156.7	1029.7	227.66	1254.8	899.29	465.55	1304.8	968.7	117.52	1241.5	1064.4	451.96	1289.5	1099	156.44	1128.2	987.69	264.48	1292.4	695.44	477.88	1361.3	622.46	458	1296.5	605.45	472.87	1359.9	714.58	459.13	1303.4	482.55	447.71	1324.5	472.64	316.91	1099.8	399.15	438.38	1085.4	308.53	435.17	1039.7	355.23	433.72	1151.4	348.32	440.96	963.31	276.32	419.77	983.22	266.1	339.63	913.57	306.56	361.34	890.67	290.06	333.7	886.77	300.46	395.55	917.03	136.51	454.59	942.11	104.89	353.87	972.62	59.194	400.47	1323.7	680.43	126.52	1402.8	616.71	168.99	1337.9	589.61	154.61	1397.3	703.93	142.26	1384.5	513.29	179.84	1371.5	518.14	307.33	1312.2	301.41	171.89	1372.3	211.25	196.49	1311	224.33	182.13	1374.1	287.74	186.06	1328.3	106.45	195.54	1335.5	116.6	285.42	1257.1	77.356	239.61	1265.8	45.056	271.7	1262.3	47.751	205.39	1440.4	42.41	176.38	1465.1	45.789	284.6	1521.5	58.699	239.36	1192.5	1485.3	306.5	1111.8	1275	301.31
393	1.6333	1402.8	1268.6	301.07	1287.1	1428.5	446.06	1269.5	1434.3	137.29	1225.9	1736.7	303.53	1343.2	987.2	412.17	1359.6	1024.7	184.23	1150.4	1015.6	307.5	1161.3	1030.7	227.44	1260.2	900.96	465.62	1309	969.24	117.2	1246.4	1065.9	451.62	1294.2	1099.9	156.07	1132.8	988.86	264.45	1300.2	697.2	478.12	1370	625.08	458	1305.4	607.27	473.24	1367.3	717.16	459	1313.7	484.43	447.96	1335.1	474.66	317.08	1110.8	399.68	437.98	1097	308.92	435.09	1051	355.25	433.34	1162.7	349.27	440.89	975.14	275.6	419.4	995.24	265.27	339.65	924.31	304.71	360.88	901.85	287.58	333.31	897.76	298.15	395.11	931.91	135.3	454.93	957.69	103.86	354.28	989.19	59.061	401.1	1326	680.89	126.34	1404.5	616.44	168.56	1339.5	589.94	154.33	1399.9	703.8	141.85	1385.7	513.23	179.38	1372.9	518.05	306.84	1312.8	301.5	171.67	1372.6	211.17	196.29	1311.3	224.44	181.98	1374.6	287.65	185.78	1328.3	106.43	195.46	1335.6	116.73	285.42	1257.1	77.381	239.59	1265.8	45.098	271.68	1262.3	47.785	205.37	1440.4	42.386	176.35	1465.1	45.786	284.58	1521.5	58.672	239.35	1197.2	1486.4	305.94	1116.6	1276.1	300.19
394	1.6375	1407.6	1269.9	301.44	1291	1429.6	446.08	1275.3	1435.8	137.18	1231.2	1737.9	303.4	1348.1	988.76	411.68	1364.3	1025.6	183.68	1155.2	1016.8	307.48	1166	1031.7	227.27	1265.7	902.64	465.73	1313.3	969.77	116.88	1251.3	1067.5	451.27	1298.9	1100.8	155.68	1137.4	989.99	264.47	1307.9	699	478.38	1378.6	627.74	457.99	1314.4	609.14	473.63	1374.8	719.75	458.83	1324	486.35	448.21	1345.5	476.75	317.28	1121.6	400.11	437.57	1108.7	309.21	435.02	1062.3	355.14	432.95	1174	350.18	440.84	987.04	274.68	419.04	1007.3	264.27	339.67	935.12	302.61	360.46	913.14	284.83	332.94	908.82	295.56	394.68	946.98	133.91	455.26	973.47	102.69	354.67	1006	58.837	401.71	1328.3	681.35	126.18	1406.2	616.18	168.11	1341.1	590.28	154.06	1402.5	703.67	141.43	1386.9	513.19	178.91	1374.2	517.96	306.35	1313.4	301.58	171.41	1372.9	211.1	196.11	1311.7	224.55	181.82	1375.2	287.56	185.51	1328.3	106.4	195.37	1335.6	116.85	285.41	1257.1	77.405	239.57	1265.8	45.141	271.67	1262.2	47.82	205.35	1440.4	42.36	176.32	1465.1	45.784	284.57	1521.5	58.644	239.33	1201.9	1487.5	305.39	1121.3	1277.2	299.09
